<?xml version="1.0" encoding="UTF-8" standalone="no"?>
<!DOCTYPE svg PUBLIC "-//W3C//DTD SVG 1.1//EN"
 "http://www.w3.org/Graphics/SVG/1.1/DTD/svg11.dtd">
<!-- Generated by graphviz version 14.0.2 (20251019.1705)
 -->
<!-- Title: RustToLeanPipeline Pages: 1 -->
<svg width="434pt" height="809pt"
 viewBox="0.00 0.00 434.00 809.00" xmlns="http://www.w3.org/2000/svg" xmlns:xlink="http://www.w3.org/1999/xlink">
<g id="graph0" class="graph" transform="scale(1 1) rotate(0) translate(4 804.5)">
<title>RustToLeanPipeline</title>
<polygon fill="#1a1a2e" stroke="none" points="-4,4 -4,-804.5 429.5,-804.5 429.5,4 -4,4"/>
<!-- title -->
<g id="node1" class="node">
<title>title</title>
<path fill="#4a4a6a" stroke="none" d="M413.5,-800.5C413.5,-800.5 12,-800.5 12,-800.5 6,-800.5 0,-794.5 0,-788.5 0,-788.5 0,-776.5 0,-776.5 0,-770.5 6,-764.5 12,-764.5 12,-764.5 413.5,-764.5 413.5,-764.5 419.5,-764.5 425.5,-770.5 425.5,-776.5 425.5,-776.5 425.5,-788.5 425.5,-788.5 425.5,-794.5 419.5,-800.5 413.5,-800.5"/>
<text xml:space="preserve" text-anchor="middle" x="212.75" y="-777.05" font-family="SF Mono, Menlo, monospace" font-size="16.00" fill="#ffffff">Rust → Lean 4 Formal Verification Pipeline</text>
</g>
<!-- rust -->
<g id="node2" class="node">
<title>rust</title>
<path fill="#2d2d44" stroke="#4a4a6a" d="M328.88,-727.5C328.88,-727.5 96.63,-727.5 96.63,-727.5 90.62,-727.5 84.62,-721.5 84.62,-715.5 84.62,-715.5 84.62,-644 84.62,-644 84.62,-638 90.62,-632 96.62,-632 96.62,-632 328.88,-632 328.88,-632 334.88,-632 340.88,-638 340.88,-644 340.88,-644 340.88,-715.5 340.88,-715.5 340.88,-721.5 334.88,-727.5 328.88,-727.5"/>
<text xml:space="preserve" text-anchor="start" x="94.62" y="-711.05" font-family="SF Mono, Menlo, monospace" font-size="11.00" fill="#ff6b6b">// Rust</text>
<text xml:space="preserve" text-anchor="start" x="94.62" y="-694.55" font-family="SF Mono, Menlo, monospace" font-size="11.00" fill="#4ecdc4">pub fn</text>
<text xml:space="preserve" text-anchor="start" x="135.12" y="-694.55" font-family="SF Mono, Menlo, monospace" font-size="11.00" fill="white"> </text>
<text xml:space="preserve" text-anchor="start" x="141.88" y="-694.55" font-family="SF Mono, Menlo, monospace" font-size="11.00" fill="#ffd93d">gcd</text>
<text xml:space="preserve" text-anchor="start" x="162.12" y="-694.55" font-family="SF Mono, Menlo, monospace" font-size="11.00" fill="white">(a: u32, b: u32) &#45;&gt; u32 {</text>
<text xml:space="preserve" text-anchor="start" x="94.62" y="-677.05" font-family="SF Mono, Menlo, monospace" font-size="11.00" fill="white"> &#160;&#160;&#160;</text>
<text xml:space="preserve" text-anchor="start" x="121.62" y="-677.05" font-family="SF Mono, Menlo, monospace" font-size="11.00" fill="#4ecdc4">if</text>
<text xml:space="preserve" text-anchor="start" x="135.12" y="-677.05" font-family="SF Mono, Menlo, monospace" font-size="11.00" fill="white"> b == 0 { a }</text>
<text xml:space="preserve" text-anchor="start" x="94.62" y="-659.55" font-family="SF Mono, Menlo, monospace" font-size="11.00" fill="white"> &#160;&#160;&#160;</text>
<text xml:space="preserve" text-anchor="start" x="121.62" y="-659.55" font-family="SF Mono, Menlo, monospace" font-size="11.00" fill="#4ecdc4">else</text>
<text xml:space="preserve" text-anchor="start" x="148.62" y="-659.55" font-family="SF Mono, Menlo, monospace" font-size="11.00" fill="white"> { gcd(b, a % b) }</text>
<text xml:space="preserve" text-anchor="start" x="94.62" y="-641.05" font-family="SF Mono, Menlo, monospace" font-size="11.00" fill="white">}</text>
</g>
<!-- title&#45;&gt;rust -->
<!-- charon -->
<g id="node3" class="node">
<title>charon</title>
<path fill="#3d3d5c" stroke="#4a4a6a" d="M258,-584.75C258,-584.75 167.5,-584.75 167.5,-584.75 161.5,-584.75 155.5,-578.75 155.5,-572.75 155.5,-572.75 155.5,-556 155.5,-556 155.5,-550 161.5,-544 167.5,-544 167.5,-544 258,-544 258,-544 264,-544 270,-550 270,-556 270,-556 270,-572.75 270,-572.75 270,-578.75 264,-584.75 258,-584.75"/>
<text xml:space="preserve" text-anchor="start" x="192.5" y="-568.3" font-family="SF Mono, Menlo, monospace" font-size="11.00" fill="#ff9f43">Charon</text>
<text xml:space="preserve" text-anchor="start" x="165.5" y="-552.7" font-family="SF Mono, Menlo, monospace" font-size="9.00" fill="#888888">Extract MIR → LLBC</text>
</g>
<!-- rust&#45;&gt;charon -->
<g id="edge2" class="edge">
<title>rust&#45;&gt;charon</title>
<path fill="none" stroke="#6c63ff" stroke-width="2" d="M212.75,-631.65C212.75,-620.32 212.75,-608.45 212.75,-597.95"/>
<polygon fill="#6c63ff" stroke="#6c63ff" stroke-width="2" points="216.25,-598.1 212.75,-588.1 209.25,-598.1 216.25,-598.1"/>
<text xml:space="preserve" text-anchor="middle" x="231.12" y="-605.45" font-family="SF Mono, Menlo, monospace" font-size="9.00" fill="#888888"> &#160;cargo</text>
</g>
<!-- llbc -->
<g id="node4" class="node">
<title>llbc</title>
<path fill="#2a2a3e" stroke="#4a4a6a" stroke-dasharray="5,2" d="M271.5,-507C271.5,-507 154,-507 154,-507 148,-507 142,-501 142,-495 142,-495 142,-478.25 142,-478.25 142,-472.25 148,-466.25 154,-466.25 154,-466.25 271.5,-466.25 271.5,-466.25 277.5,-466.25 283.5,-472.25 283.5,-478.25 283.5,-478.25 283.5,-495 283.5,-495 283.5,-501 277.5,-507 271.5,-507"/>
<text xml:space="preserve" text-anchor="start" x="152" y="-490.55" font-family="SF Mono, Menlo, monospace" font-size="11.00" fill="#a8a8a8">verified_rust.llbc</text>
<text xml:space="preserve" text-anchor="start" x="155" y="-474.95" font-family="SF Mono, Menlo, monospace" font-size="9.00" fill="#666666">54KB intermediate repr</text>
</g>
<!-- charon&#45;&gt;llbc -->
<g id="edge3" class="edge">
<title>charon&#45;&gt;llbc</title>
<path fill="none" stroke="#6c63ff" stroke-width="2" d="M212.75,-543.87C212.75,-536.68 212.75,-528.32 212.75,-520.29"/>
<polygon fill="#6c63ff" stroke="#6c63ff" stroke-width="2" points="216.25,-520.36 212.75,-510.36 209.25,-520.36 216.25,-520.36"/>
</g>
<!-- aeneas -->
<g id="node5" class="node">
<title>aeneas</title>
<path fill="#3d3d5c" stroke="#4a4a6a" d="M258,-429.25C258,-429.25 167.5,-429.25 167.5,-429.25 161.5,-429.25 155.5,-423.25 155.5,-417.25 155.5,-417.25 155.5,-400.5 155.5,-400.5 155.5,-394.5 161.5,-388.5 167.5,-388.5 167.5,-388.5 258,-388.5 258,-388.5 264,-388.5 270,-394.5 270,-400.5 270,-400.5 270,-417.25 270,-417.25 270,-423.25 264,-429.25 258,-429.25"/>
<text xml:space="preserve" text-anchor="start" x="192.5" y="-412.8" font-family="SF Mono, Menlo, monospace" font-size="11.00" fill="#ff9f43">Aeneas</text>
<text xml:space="preserve" text-anchor="start" x="165.5" y="-397.2" font-family="SF Mono, Menlo, monospace" font-size="9.00" fill="#888888">LLBC → Pure Lean 4</text>
</g>
<!-- llbc&#45;&gt;aeneas -->
<g id="edge4" class="edge">
<title>llbc&#45;&gt;aeneas</title>
<path fill="none" stroke="#6c63ff" stroke-width="2" d="M212.75,-466.12C212.75,-458.93 212.75,-450.57 212.75,-442.54"/>
<polygon fill="#6c63ff" stroke="#6c63ff" stroke-width="2" points="216.25,-442.61 212.75,-432.61 209.25,-442.61 216.25,-442.61"/>
</g>
<!-- lean -->
<g id="node6" class="node">
<title>lean</title>
<path fill="#2d2d44" stroke="#4a4a6a" d="M352.5,-341.25C352.5,-341.25 73,-341.25 73,-341.25 67,-341.25 61,-335.25 61,-329.25 61,-329.25 61,-257.75 61,-257.75 61,-251.75 67,-245.75 73,-245.75 73,-245.75 352.5,-245.75 352.5,-245.75 358.5,-245.75 364.5,-251.75 364.5,-257.75 364.5,-257.75 364.5,-329.25 364.5,-329.25 364.5,-335.25 358.5,-341.25 352.5,-341.25"/>
<text xml:space="preserve" text-anchor="start" x="71" y="-324.8" font-family="SF Mono, Menlo, monospace" font-size="11.00" fill="#ff6b6b">&#45;&#45; Auto&#45;generated Lean 4</text>
<text xml:space="preserve" text-anchor="start" x="71" y="-308.3" font-family="SF Mono, Menlo, monospace" font-size="11.00" fill="#4ecdc4">def</text>
<text xml:space="preserve" text-anchor="start" x="91.25" y="-308.3" font-family="SF Mono, Menlo, monospace" font-size="11.00" fill="white"> simple.gcd (a b : U32) : Result U32 :=</text>
<text xml:space="preserve" text-anchor="start" x="71" y="-290.8" font-family="SF Mono, Menlo, monospace" font-size="11.00" fill="white"> &#160;</text>
<text xml:space="preserve" text-anchor="start" x="84.5" y="-290.8" font-family="SF Mono, Menlo, monospace" font-size="11.00" fill="#4ecdc4">if</text>
<text xml:space="preserve" text-anchor="start" x="98" y="-290.8" font-family="SF Mono, Menlo, monospace" font-size="11.00" fill="white"> b = 0#u32</text>
<text xml:space="preserve" text-anchor="start" x="71" y="-273.3" font-family="SF Mono, Menlo, monospace" font-size="11.00" fill="white"> &#160;</text>
<text xml:space="preserve" text-anchor="start" x="84.5" y="-273.3" font-family="SF Mono, Menlo, monospace" font-size="11.00" fill="#4ecdc4">then</text>
<text xml:space="preserve" text-anchor="start" x="111.5" y="-273.3" font-family="SF Mono, Menlo, monospace" font-size="11.00" fill="white"> ok a</text>
<text xml:space="preserve" text-anchor="start" x="71" y="-255.8" font-family="SF Mono, Menlo, monospace" font-size="11.00" fill="white"> &#160;</text>
<text xml:space="preserve" text-anchor="start" x="84.5" y="-255.8" font-family="SF Mono, Menlo, monospace" font-size="11.00" fill="#4ecdc4">else</text>
<text xml:space="preserve" text-anchor="start" x="111.5" y="-255.8" font-family="SF Mono, Menlo, monospace" font-size="11.00" fill="white"> </text>
<text xml:space="preserve" text-anchor="start" x="118.25" y="-255.8" font-family="SF Mono, Menlo, monospace" font-size="11.00" fill="#4ecdc4">do</text>
<text xml:space="preserve" text-anchor="start" x="131.75" y="-255.8" font-family="SF Mono, Menlo, monospace" font-size="11.00" fill="white"> </text>
<text xml:space="preserve" text-anchor="start" x="138.5" y="-255.8" font-family="SF Mono, Menlo, monospace" font-size="11.00" fill="#4ecdc4">let</text>
<text xml:space="preserve" text-anchor="start" x="158.75" y="-255.8" font-family="SF Mono, Menlo, monospace" font-size="11.00" fill="white"> i ← a % b; gcd b i</text>
</g>
<!-- aeneas&#45;&gt;lean -->
<g id="edge5" class="edge">
<title>aeneas&#45;&gt;lean</title>
<path fill="none" stroke="#6c63ff" stroke-width="2" d="M212.75,-388.13C212.75,-378.52 212.75,-366.41 212.75,-354.11"/>
<polygon fill="#6c63ff" stroke="#6c63ff" stroke-width="2" points="216.25,-354.36 212.75,-344.36 209.25,-354.36 216.25,-354.36"/>
<text xml:space="preserve" text-anchor="middle" x="252.12" y="-361.95" font-family="SF Mono, Menlo, monospace" font-size="9.00" fill="#888888"> &#160;&#45;backend lean</text>
</g>
<!-- proof -->
<g id="node7" class="node">
<title>proof</title>
<path fill="#1e3a1e" stroke="#4a4a6a" d="M325.5,-198.5C325.5,-198.5 100,-198.5 100,-198.5 94,-198.5 88,-192.5 88,-186.5 88,-186.5 88,-132.5 88,-132.5 88,-126.5 94,-120.5 100,-120.5 100,-120.5 325.5,-120.5 325.5,-120.5 331.5,-120.5 337.5,-126.5 337.5,-132.5 337.5,-132.5 337.5,-186.5 337.5,-186.5 337.5,-192.5 331.5,-198.5 325.5,-198.5"/>
<text xml:space="preserve" text-anchor="start" x="98" y="-182.05" font-family="SF Mono, Menlo, monospace" font-size="11.00" fill="#ff6b6b">&#45;&#45; Human&#45;written proof</text>
<text xml:space="preserve" text-anchor="start" x="98" y="-165.55" font-family="SF Mono, Menlo, monospace" font-size="11.00" fill="#4ecdc4">theorem</text>
<text xml:space="preserve" text-anchor="start" x="145.25" y="-165.55" font-family="SF Mono, Menlo, monospace" font-size="11.00" fill="white"> </text>
<text xml:space="preserve" text-anchor="start" x="152" y="-165.55" font-family="SF Mono, Menlo, monospace" font-size="11.00" fill="#ffd93d">gcd_zero_right</text>
<text xml:space="preserve" text-anchor="start" x="246.5" y="-165.55" font-family="SF Mono, Menlo, monospace" font-size="11.00" fill="white"> (a : U32) :</text>
<text xml:space="preserve" text-anchor="start" x="98" y="-148.05" font-family="SF Mono, Menlo, monospace" font-size="11.00" fill="white"> &#160;&#160;&#160;gcd a 0#u32 = ok a := </text>
<text xml:space="preserve" text-anchor="start" x="273.5" y="-148.05" font-family="SF Mono, Menlo, monospace" font-size="11.00" fill="#4ecdc4">by</text>
<text xml:space="preserve" text-anchor="start" x="98" y="-129.55" font-family="SF Mono, Menlo, monospace" font-size="11.00" fill="white"> &#160;unfold gcd; simp</text>
</g>
<!-- lean&#45;&gt;proof -->
<g id="edge6" class="edge">
<title>lean&#45;&gt;proof</title>
<path fill="none" stroke="#6c63ff" stroke-width="2" d="M212.75,-245.59C212.75,-234.62 212.75,-222.88 212.75,-211.73"/>
<polygon fill="#6c63ff" stroke="#6c63ff" stroke-width="2" points="216.25,-212.02 212.75,-202.02 209.25,-212.02 216.25,-212.02"/>
<text xml:space="preserve" text-anchor="middle" x="233.75" y="-219.2" font-family="SF Mono, Menlo, monospace" font-size="9.00" fill="#888888"> &#160;import</text>
</g>
<!-- verified -->
<g id="node8" class="node">
<title>verified</title>
<path fill="#1e4a1e" stroke="#4ecdc4" stroke-width="2" d="M273.75,-73.25C273.75,-73.25 151.75,-73.25 151.75,-73.25 145.75,-73.25 139.75,-67.25 139.75,-61.25 139.75,-61.25 139.75,-12 139.75,-12 139.75,-6 145.75,0 151.75,0 151.75,0 273.75,0 273.75,0 279.75,0 285.75,-6 285.75,-12 285.75,-12 285.75,-61.25 285.75,-61.25 285.75,-67.25 279.75,-73.25 273.75,-73.25"/>
<text xml:space="preserve" text-anchor="start" x="205.62" y="-44.45" font-family="SF Mono, Menlo, monospace" font-size="24.00" fill="#4ecdc4">✓</text>
<text xml:space="preserve" text-anchor="start" x="192.5" y="-24.3" font-family="SF Mono, Menlo, monospace" font-size="11.00" fill="#4ecdc4">PROVEN</text>
<text xml:space="preserve" text-anchor="start" x="149.75" y="-8.7" font-family="SF Mono, Menlo, monospace" font-size="9.00" fill="#666666">∀ a : U32, gcd(a, 0) = a</text>
</g>
<!-- proof&#45;&gt;verified -->
<g id="edge7" class="edge">
<title>proof&#45;&gt;verified</title>
<path fill="none" stroke="#6c63ff" stroke-width="2" d="M212.75,-120.25C212.75,-109.62 212.75,-97.91 212.75,-86.74"/>
<polygon fill="#6c63ff" stroke="#6c63ff" stroke-width="2" points="216.25,-87 212.75,-77 209.25,-87 216.25,-87"/>
<text xml:space="preserve" text-anchor="middle" x="244.25" y="-93.95" font-family="SF Mono, Menlo, monospace" font-size="9.00" fill="#888888"> &#160;lake build</text>
</g>
</g>
</svg>
